<svg xmlns="http://www.w3.org/2000/svg" xmlns:xlink="http://www.w3.org/1999/xlink" width="188" zoomAndPan="magnify" viewBox="0 0 141 55.5" height="74" preserveAspectRatio="xMidYMid meet" version="1.0"><defs><g/><clipPath id="a2d6995c06"><path d="M 0.628906 0 L 140.371094 0 L 140.371094 55.003906 L 0.628906 55.003906 Z M 0.628906 0 " clip-rule="nonzero"/></clipPath><clipPath id="12e85005b4"><path d="M 1 8.597656 L 41.511719 8.597656 L 41.511719 48.734375 L 1 48.734375 Z M 1 8.597656 " clip-rule="nonzero"/></clipPath></defs><g clip-path="url(#a2d6995c06)"><path fill="#ffffff" d="M 0.628906 0 L 140.371094 0 L 140.371094 55.003906 L 0.628906 55.003906 Z M 0.628906 0 " fill-opacity="1" fill-rule="nonzero"/></g><g fill="#ffffff" fill-opacity="1"><g transform="translate(47.763576, 20.20748)"><g><path d="M 6.234375 -11.765625 C 7.210938 -11.765625 8.035156 -11.59375 8.703125 -11.25 C 9.367188 -10.90625 9.882812 -10.441406 10.25 -9.859375 C 10.625 -9.273438 10.847656 -8.601562 10.921875 -7.84375 L 10.9375 -7.6875 L 9.5 -7.6875 L 9.46875 -7.84375 C 9.300781 -8.675781 8.953125 -9.347656 8.421875 -9.859375 C 7.898438 -10.367188 7.160156 -10.625 6.203125 -10.625 C 5.421875 -10.625 4.742188 -10.414062 4.171875 -10 C 3.597656 -9.582031 3.15625 -9.007812 2.84375 -8.28125 C 2.539062 -7.550781 2.390625 -6.71875 2.390625 -5.78125 C 2.390625 -4.832031 2.539062 -3.988281 2.84375 -3.25 C 3.144531 -2.519531 3.570312 -1.945312 4.125 -1.53125 C 4.675781 -1.113281 5.332031 -0.90625 6.09375 -0.90625 C 7.050781 -0.90625 7.796875 -1.160156 8.328125 -1.671875 C 8.859375 -2.179688 9.207031 -2.847656 9.375 -3.671875 L 9.40625 -3.84375 L 10.84375 -3.84375 L 10.828125 -3.671875 C 10.753906 -2.984375 10.53125 -2.34375 10.15625 -1.75 C 9.78125 -1.15625 9.25 -0.675781 8.5625 -0.3125 C 7.875 0.0507812 7.023438 0.234375 6.015625 0.234375 C 4.898438 0.234375 3.953125 -0.0234375 3.171875 -0.546875 C 2.390625 -1.078125 1.796875 -1.789062 1.390625 -2.6875 C 0.984375 -3.582031 0.78125 -4.59375 0.78125 -5.71875 C 0.78125 -6.882812 1.003906 -7.921875 1.453125 -8.828125 C 1.910156 -9.742188 2.546875 -10.460938 3.359375 -10.984375 C 4.179688 -11.503906 5.140625 -11.765625 6.234375 -11.765625 Z M 6.234375 -11.765625 "/></g></g></g><g fill="#ffffff" fill-opacity="1"><g transform="translate(59.43767, 20.20748)"><g><path d="M 4.890625 -9.09375 C 5.890625 -9.09375 6.71875 -8.875 7.375 -8.4375 C 8.03125 -8.007812 8.507812 -7.441406 8.8125 -6.734375 C 9.125 -6.023438 9.28125 -5.253906 9.28125 -4.421875 C 9.28125 -3.597656 9.125 -2.828125 8.8125 -2.109375 C 8.507812 -1.398438 8.03125 -0.832031 7.375 -0.40625 C 6.71875 0.0195312 5.890625 0.234375 4.890625 0.234375 C 3.890625 0.234375 3.066406 0.0195312 2.421875 -0.40625 C 1.773438 -0.832031 1.289062 -1.398438 0.96875 -2.109375 C 0.65625 -2.828125 0.5 -3.597656 0.5 -4.421875 C 0.5 -5.253906 0.65625 -6.023438 0.96875 -6.734375 C 1.289062 -7.441406 1.773438 -8.007812 2.421875 -8.4375 C 3.066406 -8.875 3.890625 -9.09375 4.890625 -9.09375 Z M 4.890625 -0.875 C 5.492188 -0.875 6.003906 -1.023438 6.421875 -1.328125 C 6.835938 -1.628906 7.15625 -2.046875 7.375 -2.578125 C 7.601562 -3.117188 7.71875 -3.734375 7.71875 -4.421875 C 7.71875 -5.472656 7.46875 -6.328125 6.96875 -6.984375 C 6.476562 -7.648438 5.785156 -7.984375 4.890625 -7.984375 C 4.003906 -7.984375 3.3125 -7.648438 2.8125 -6.984375 C 2.320312 -6.328125 2.078125 -5.472656 2.078125 -4.421875 C 2.078125 -3.734375 2.1875 -3.117188 2.40625 -2.578125 C 2.625 -2.046875 2.941406 -1.628906 3.359375 -1.328125 C 3.773438 -1.023438 4.285156 -0.875 4.890625 -0.875 Z M 4.890625 -0.875 "/></g></g></g><g fill="#ffffff" fill-opacity="1"><g transform="translate(69.224538, 20.20748)"><g><path d="M 8.6875 -6.5 C 8.707031 -6.269531 8.71875 -6.046875 8.71875 -5.828125 C 8.71875 -5.617188 8.71875 -5.335938 8.71875 -4.984375 L 8.71875 0 L 7.28125 0 L 7.28125 -4.875 C 7.28125 -5.101562 7.28125 -5.316406 7.28125 -5.515625 C 7.28125 -5.710938 7.269531 -5.921875 7.25 -6.140625 C 7.207031 -6.671875 7.03125 -7.101562 6.71875 -7.4375 C 6.414062 -7.78125 5.921875 -7.953125 5.234375 -7.953125 C 4.773438 -7.953125 4.347656 -7.820312 3.953125 -7.5625 C 3.566406 -7.3125 3.253906 -6.890625 3.015625 -6.296875 C 2.785156 -5.703125 2.671875 -4.898438 2.671875 -3.890625 L 2.671875 0 L 1.234375 0 L 1.234375 -8.859375 L 2.671875 -8.859375 L 2.671875 -7.328125 L 3.21875 -8.359375 C 3.601562 -8.640625 3.972656 -8.832031 4.328125 -8.9375 C 4.679688 -9.039062 5.082031 -9.09375 5.53125 -9.09375 C 6.5 -9.09375 7.25 -8.851562 7.78125 -8.375 C 8.3125 -7.90625 8.613281 -7.28125 8.6875 -6.5 Z M 8.6875 -6.5 "/></g></g></g><g fill="#ffffff" fill-opacity="1"><g transform="translate(79.133308, 20.20748)"><g/></g></g><g fill="#ffffff" fill-opacity="1"><g transform="translate(47.763576, 32.84364)"><g><path d="M 6.234375 -11.765625 C 7.210938 -11.765625 8.035156 -11.59375 8.703125 -11.25 C 9.367188 -10.90625 9.882812 -10.441406 10.25 -9.859375 C 10.625 -9.273438 10.847656 -8.601562 10.921875 -7.84375 L 10.9375 -7.6875 L 9.5 -7.6875 L 9.46875 -7.84375 C 9.300781 -8.675781 8.953125 -9.347656 8.421875 -9.859375 C 7.898438 -10.367188 7.160156 -10.625 6.203125 -10.625 C 5.421875 -10.625 4.742188 -10.414062 4.171875 -10 C 3.597656 -9.582031 3.15625 -9.007812 2.84375 -8.28125 C 2.539062 -7.550781 2.390625 -6.71875 2.390625 -5.78125 C 2.390625 -4.832031 2.539062 -3.988281 2.84375 -3.25 C 3.144531 -2.519531 3.570312 -1.945312 4.125 -1.53125 C 4.675781 -1.113281 5.332031 -0.90625 6.09375 -0.90625 C 7.050781 -0.90625 7.796875 -1.160156 8.328125 -1.671875 C 8.859375 -2.179688 9.207031 -2.847656 9.375 -3.671875 L 9.40625 -3.84375 L 10.84375 -3.84375 L 10.828125 -3.671875 C 10.753906 -2.984375 10.53125 -2.34375 10.15625 -1.75 C 9.78125 -1.15625 9.25 -0.675781 8.5625 -0.3125 C 7.875 0.0507812 7.023438 0.234375 6.015625 0.234375 C 4.898438 0.234375 3.953125 -0.0234375 3.171875 -0.546875 C 2.390625 -1.078125 1.796875 -1.789062 1.390625 -2.6875 C 0.984375 -3.582031 0.78125 -4.59375 0.78125 -5.71875 C 0.78125 -6.882812 1.003906 -7.921875 1.453125 -8.828125 C 1.910156 -9.742188 2.546875 -10.460938 3.359375 -10.984375 C 4.179688 -11.503906 5.140625 -11.765625 6.234375 -11.765625 Z M 6.234375 -11.765625 "/></g></g></g><g fill="#ffffff" fill-opacity="1"><g transform="translate(59.43767, 32.84364)"><g><path d="M 1.953125 -11.765625 C 2.210938 -11.765625 2.429688 -11.671875 2.609375 -11.484375 C 2.785156 -11.304688 2.875 -11.09375 2.875 -10.84375 C 2.875 -10.582031 2.785156 -10.363281 2.609375 -10.1875 C 2.429688 -10.007812 2.210938 -9.921875 1.953125 -9.921875 C 1.691406 -9.921875 1.472656 -10.007812 1.296875 -10.1875 C 1.117188 -10.363281 1.03125 -10.582031 1.03125 -10.84375 C 1.03125 -11.09375 1.117188 -11.304688 1.296875 -11.484375 C 1.472656 -11.671875 1.691406 -11.765625 1.953125 -11.765625 Z M 2.671875 0 L 1.234375 0 L 1.234375 -8.859375 L 2.671875 -8.859375 Z M 2.671875 0 "/></g></g></g><g fill="#ffffff" fill-opacity="1"><g transform="translate(63.412545, 32.84364)"><g><path d="M 8.5 -4.671875 C 8.5 -4.609375 8.5 -4.515625 8.5 -4.390625 C 8.5 -4.273438 8.488281 -4.140625 8.46875 -3.984375 L 2.046875 -3.984375 C 2.097656 -3.210938 2.242188 -2.597656 2.484375 -2.140625 C 2.722656 -1.679688 3.023438 -1.351562 3.390625 -1.15625 C 3.753906 -0.96875 4.15625 -0.875 4.59375 -0.875 C 5.175781 -0.875 5.675781 -1.046875 6.09375 -1.390625 C 6.519531 -1.734375 6.78125 -2.222656 6.875 -2.859375 L 8.390625 -2.859375 C 8.273438 -2.140625 8.023438 -1.550781 7.640625 -1.09375 C 7.253906 -0.644531 6.789062 -0.3125 6.25 -0.09375 C 5.707031 0.125 5.132812 0.234375 4.53125 0.234375 C 3.757812 0.234375 3.066406 0.0664062 2.453125 -0.265625 C 1.847656 -0.609375 1.367188 -1.125 1.015625 -1.8125 C 0.671875 -2.5 0.5 -3.359375 0.5 -4.390625 C 0.5 -5.347656 0.679688 -6.175781 1.046875 -6.875 C 1.421875 -7.582031 1.921875 -8.128906 2.546875 -8.515625 C 3.179688 -8.898438 3.898438 -9.09375 4.703125 -9.09375 C 5.515625 -9.09375 6.203125 -8.90625 6.765625 -8.53125 C 7.328125 -8.15625 7.753906 -7.632812 8.046875 -6.96875 C 8.347656 -6.3125 8.5 -5.546875 8.5 -4.671875 Z M 4.671875 -7.984375 C 3.972656 -7.984375 3.382812 -7.738281 2.90625 -7.25 C 2.4375 -6.757812 2.160156 -6.039062 2.078125 -5.09375 L 7.046875 -5.09375 C 6.984375 -6.019531 6.753906 -6.734375 6.359375 -7.234375 C 5.960938 -7.734375 5.398438 -7.984375 4.671875 -7.984375 Z M 4.671875 -7.984375 "/></g></g></g><g fill="#ffffff" fill-opacity="1"><g transform="translate(72.581472, 32.84364)"><g><path d="M 8.6875 -6.5 C 8.707031 -6.269531 8.71875 -6.046875 8.71875 -5.828125 C 8.71875 -5.617188 8.71875 -5.335938 8.71875 -4.984375 L 8.71875 0 L 7.28125 0 L 7.28125 -4.875 C 7.28125 -5.101562 7.28125 -5.316406 7.28125 -5.515625 C 7.28125 -5.710938 7.269531 -5.921875 7.25 -6.140625 C 7.207031 -6.671875 7.03125 -7.101562 6.71875 -7.4375 C 6.414062 -7.78125 5.921875 -7.953125 5.234375 -7.953125 C 4.773438 -7.953125 4.347656 -7.820312 3.953125 -7.5625 C 3.566406 -7.3125 3.253906 -6.890625 3.015625 -6.296875 C 2.785156 -5.703125 2.671875 -4.898438 2.671875 -3.890625 L 2.671875 0 L 1.234375 0 L 1.234375 -8.859375 L 2.671875 -8.859375 L 2.671875 -7.328125 L 3.21875 -8.359375 C 3.601562 -8.640625 3.972656 -8.832031 4.328125 -8.9375 C 4.679688 -9.039062 5.082031 -9.09375 5.53125 -9.09375 C 6.5 -9.09375 7.25 -8.851562 7.78125 -8.375 C 8.3125 -7.90625 8.613281 -7.28125 8.6875 -6.5 Z M 8.6875 -6.5 "/></g></g></g><g fill="#ffffff" fill-opacity="1"><g transform="translate(82.485252, 32.84364)"><g><path d="M 4.65625 -9.09375 C 5.71875 -9.09375 6.570312 -8.796875 7.21875 -8.203125 C 7.875 -7.617188 8.269531 -6.84375 8.40625 -5.875 L 6.890625 -5.875 C 6.585938 -7.28125 5.832031 -7.984375 4.625 -7.984375 C 4.164062 -7.984375 3.738281 -7.859375 3.34375 -7.609375 C 2.957031 -7.367188 2.648438 -6.992188 2.421875 -6.484375 C 2.191406 -5.972656 2.078125 -5.316406 2.078125 -4.515625 C 2.078125 -3.648438 2.1875 -2.953125 2.40625 -2.421875 C 2.632812 -1.890625 2.9375 -1.5 3.3125 -1.25 C 3.6875 -1 4.09375 -0.875 4.53125 -0.875 C 5.113281 -0.875 5.601562 -1.035156 6 -1.359375 C 6.394531 -1.691406 6.664062 -2.179688 6.8125 -2.828125 L 8.3125 -2.828125 C 8.101562 -1.796875 7.648438 -1.023438 6.953125 -0.515625 C 6.265625 -0.015625 5.425781 0.234375 4.4375 0.234375 C 3.695312 0.234375 3.023438 0.0703125 2.421875 -0.25 C 1.828125 -0.570312 1.359375 -1.078125 1.015625 -1.765625 C 0.671875 -2.453125 0.5 -3.332031 0.5 -4.40625 C 0.5 -5.40625 0.691406 -6.253906 1.078125 -6.953125 C 1.460938 -7.648438 1.972656 -8.179688 2.609375 -8.546875 C 3.242188 -8.910156 3.925781 -9.09375 4.65625 -9.09375 Z M 4.65625 -9.09375 "/></g></g></g><g fill="#ffffff" fill-opacity="1"><g transform="translate(91.320159, 32.84364)"><g><path d="M 1.953125 -11.765625 C 2.210938 -11.765625 2.429688 -11.671875 2.609375 -11.484375 C 2.785156 -11.304688 2.875 -11.09375 2.875 -10.84375 C 2.875 -10.582031 2.785156 -10.363281 2.609375 -10.1875 C 2.429688 -10.007812 2.210938 -9.921875 1.953125 -9.921875 C 1.691406 -9.921875 1.472656 -10.007812 1.296875 -10.1875 C 1.117188 -10.363281 1.03125 -10.582031 1.03125 -10.84375 C 1.03125 -11.09375 1.117188 -11.304688 1.296875 -11.484375 C 1.472656 -11.671875 1.691406 -11.765625 1.953125 -11.765625 Z M 2.671875 0 L 1.234375 0 L 1.234375 -8.859375 L 2.671875 -8.859375 Z M 2.671875 0 "/></g></g></g><g fill="#ffffff" fill-opacity="1"><g transform="translate(95.295034, 32.84364)"><g><path d="M 6.3125 0 L 6.15625 -1.265625 L 5.671875 -0.3125 C 5.378906 -0.101562 5.039062 0.0351562 4.65625 0.109375 C 4.28125 0.191406 3.878906 0.234375 3.453125 0.234375 C 2.921875 0.234375 2.441406 0.140625 2.015625 -0.046875 C 1.585938 -0.242188 1.242188 -0.53125 0.984375 -0.90625 C 0.722656 -1.28125 0.59375 -1.738281 0.59375 -2.28125 C 0.59375 -3.289062 0.988281 -4.050781 1.78125 -4.5625 C 2.570312 -5.070312 3.835938 -5.328125 5.578125 -5.328125 L 6.140625 -5.328125 L 6.140625 -5.5625 C 6.140625 -5.75 6.140625 -5.929688 6.140625 -6.109375 C 6.140625 -6.285156 6.128906 -6.457031 6.109375 -6.625 C 6.078125 -7.039062 5.929688 -7.367188 5.671875 -7.609375 C 5.410156 -7.859375 4.984375 -7.984375 4.390625 -7.984375 C 3.785156 -7.984375 3.332031 -7.820312 3.03125 -7.5 C 2.726562 -7.1875 2.546875 -6.722656 2.484375 -6.109375 L 0.984375 -6.109375 C 1.046875 -7.054688 1.382812 -7.789062 2 -8.3125 C 2.613281 -8.832031 3.410156 -9.09375 4.390625 -9.09375 C 5.453125 -9.09375 6.222656 -8.878906 6.703125 -8.453125 C 7.179688 -8.035156 7.457031 -7.46875 7.53125 -6.75 C 7.550781 -6.570312 7.5625 -6.378906 7.5625 -6.171875 C 7.570312 -5.960938 7.578125 -5.765625 7.578125 -5.578125 L 7.578125 -2.25 C 7.578125 -1.914062 7.585938 -1.578125 7.609375 -1.234375 C 7.640625 -0.898438 7.6875 -0.488281 7.75 0 Z M 3.9375 -0.875 C 4.601562 -0.875 5.132812 -1.085938 5.53125 -1.515625 C 5.9375 -1.941406 6.140625 -2.554688 6.140625 -3.359375 L 6.140625 -4.265625 C 4.929688 -4.347656 3.96875 -4.25 3.25 -3.96875 C 2.53125 -3.6875 2.171875 -3.164062 2.171875 -2.40625 C 2.171875 -1.875 2.328125 -1.484375 2.640625 -1.234375 C 2.960938 -0.992188 3.394531 -0.875 3.9375 -0.875 Z M 3.9375 -0.875 "/></g></g></g><g fill="#ffffff" fill-opacity="1"><g transform="translate(47.763576, 45.4798)"><g><path d="M 3.109375 -10.359375 L 3.109375 -6.34375 L 8.5 -6.34375 L 8.5 -5.171875 L 3.109375 -5.171875 L 3.109375 0 L 1.671875 0 L 1.671875 -11.53125 L 9.171875 -11.53125 L 9.171875 -10.359375 Z M 3.109375 -10.359375 "/></g></g></g><g fill="#ffffff" fill-opacity="1"><g transform="translate(57.23312, 45.4798)"><g><path d="M 1.953125 -11.765625 C 2.210938 -11.765625 2.429688 -11.671875 2.609375 -11.484375 C 2.785156 -11.304688 2.875 -11.09375 2.875 -10.84375 C 2.875 -10.582031 2.785156 -10.363281 2.609375 -10.1875 C 2.429688 -10.007812 2.210938 -9.921875 1.953125 -9.921875 C 1.691406 -9.921875 1.472656 -10.007812 1.296875 -10.1875 C 1.117188 -10.363281 1.03125 -10.582031 1.03125 -10.84375 C 1.03125 -11.09375 1.117188 -11.304688 1.296875 -11.484375 C 1.472656 -11.671875 1.691406 -11.765625 1.953125 -11.765625 Z M 2.671875 0 L 1.234375 0 L 1.234375 -8.859375 L 2.671875 -8.859375 Z M 2.671875 0 "/></g></g></g><g fill="#ffffff" fill-opacity="1"><g transform="translate(61.207995, 45.4798)"><g><path d="M 8.6875 -6.5 C 8.707031 -6.269531 8.71875 -6.046875 8.71875 -5.828125 C 8.71875 -5.617188 8.71875 -5.335938 8.71875 -4.984375 L 8.71875 0 L 7.28125 0 L 7.28125 -4.875 C 7.28125 -5.101562 7.28125 -5.316406 7.28125 -5.515625 C 7.28125 -5.710938 7.269531 -5.921875 7.25 -6.140625 C 7.207031 -6.671875 7.03125 -7.101562 6.71875 -7.4375 C 6.414062 -7.78125 5.921875 -7.953125 5.234375 -7.953125 C 4.773438 -7.953125 4.347656 -7.820312 3.953125 -7.5625 C 3.566406 -7.3125 3.253906 -6.890625 3.015625 -6.296875 C 2.785156 -5.703125 2.671875 -4.898438 2.671875 -3.890625 L 2.671875 0 L 1.234375 0 L 1.234375 -8.859375 L 2.671875 -8.859375 L 2.671875 -7.328125 L 3.21875 -8.359375 C 3.601562 -8.640625 3.972656 -8.832031 4.328125 -8.9375 C 4.679688 -9.039062 5.082031 -9.09375 5.53125 -9.09375 C 6.5 -9.09375 7.25 -8.851562 7.78125 -8.375 C 8.3125 -7.90625 8.613281 -7.28125 8.6875 -6.5 Z M 8.6875 -6.5 "/></g></g></g><g fill="#ffffff" fill-opacity="1"><g transform="translate(71.111775, 45.4798)"><g><path d="M 6.3125 0 L 6.15625 -1.265625 L 5.671875 -0.3125 C 5.378906 -0.101562 5.039062 0.0351562 4.65625 0.109375 C 4.28125 0.191406 3.878906 0.234375 3.453125 0.234375 C 2.921875 0.234375 2.441406 0.140625 2.015625 -0.046875 C 1.585938 -0.242188 1.242188 -0.53125 0.984375 -0.90625 C 0.722656 -1.28125 0.59375 -1.738281 0.59375 -2.28125 C 0.59375 -3.289062 0.988281 -4.050781 1.78125 -4.5625 C 2.570312 -5.070312 3.835938 -5.328125 5.578125 -5.328125 L 6.140625 -5.328125 L 6.140625 -5.5625 C 6.140625 -5.75 6.140625 -5.929688 6.140625 -6.109375 C 6.140625 -6.285156 6.128906 -6.457031 6.109375 -6.625 C 6.078125 -7.039062 5.929688 -7.367188 5.671875 -7.609375 C 5.410156 -7.859375 4.984375 -7.984375 4.390625 -7.984375 C 3.785156 -7.984375 3.332031 -7.820312 3.03125 -7.5 C 2.726562 -7.1875 2.546875 -6.722656 2.484375 -6.109375 L 0.984375 -6.109375 C 1.046875 -7.054688 1.382812 -7.789062 2 -8.3125 C 2.613281 -8.832031 3.410156 -9.09375 4.390625 -9.09375 C 5.453125 -9.09375 6.222656 -8.878906 6.703125 -8.453125 C 7.179688 -8.035156 7.457031 -7.46875 7.53125 -6.75 C 7.550781 -6.570312 7.5625 -6.378906 7.5625 -6.171875 C 7.570312 -5.960938 7.578125 -5.765625 7.578125 -5.578125 L 7.578125 -2.25 C 7.578125 -1.914062 7.585938 -1.578125 7.609375 -1.234375 C 7.640625 -0.898438 7.6875 -0.488281 7.75 0 Z M 3.9375 -0.875 C 4.601562 -0.875 5.132812 -1.085938 5.53125 -1.515625 C 5.9375 -1.941406 6.140625 -2.554688 6.140625 -3.359375 L 6.140625 -4.265625 C 4.929688 -4.347656 3.96875 -4.25 3.25 -3.96875 C 2.53125 -3.6875 2.171875 -3.164062 2.171875 -2.40625 C 2.171875 -1.875 2.328125 -1.484375 2.640625 -1.234375 C 2.960938 -0.992188 3.394531 -0.875 3.9375 -0.875 Z M 3.9375 -0.875 "/></g></g></g><g fill="#ffffff" fill-opacity="1"><g transform="translate(79.980084, 45.4798)"><g><path d="M 8.6875 -6.5 C 8.707031 -6.269531 8.71875 -6.046875 8.71875 -5.828125 C 8.71875 -5.617188 8.71875 -5.335938 8.71875 -4.984375 L 8.71875 0 L 7.28125 0 L 7.28125 -4.875 C 7.28125 -5.101562 7.28125 -5.316406 7.28125 -5.515625 C 7.28125 -5.710938 7.269531 -5.921875 7.25 -6.140625 C 7.207031 -6.671875 7.03125 -7.101562 6.71875 -7.4375 C 6.414062 -7.78125 5.921875 -7.953125 5.234375 -7.953125 C 4.773438 -7.953125 4.347656 -7.820312 3.953125 -7.5625 C 3.566406 -7.3125 3.253906 -6.890625 3.015625 -6.296875 C 2.785156 -5.703125 2.671875 -4.898438 2.671875 -3.890625 L 2.671875 0 L 1.234375 0 L 1.234375 -8.859375 L 2.671875 -8.859375 L 2.671875 -7.328125 L 3.21875 -8.359375 C 3.601562 -8.640625 3.972656 -8.832031 4.328125 -8.9375 C 4.679688 -9.039062 5.082031 -9.09375 5.53125 -9.09375 C 6.5 -9.09375 7.25 -8.851562 7.78125 -8.375 C 8.3125 -7.90625 8.613281 -7.28125 8.6875 -6.5 Z M 8.6875 -6.5 "/></g></g></g><g fill="#ffffff" fill-opacity="1"><g transform="translate(89.883864, 45.4798)"><g><path d="M 4.65625 -9.09375 C 5.71875 -9.09375 6.570312 -8.796875 7.21875 -8.203125 C 7.875 -7.617188 8.269531 -6.84375 8.40625 -5.875 L 6.890625 -5.875 C 6.585938 -7.28125 5.832031 -7.984375 4.625 -7.984375 C 4.164062 -7.984375 3.738281 -7.859375 3.34375 -7.609375 C 2.957031 -7.367188 2.648438 -6.992188 2.421875 -6.484375 C 2.191406 -5.972656 2.078125 -5.316406 2.078125 -4.515625 C 2.078125 -3.648438 2.1875 -2.953125 2.40625 -2.421875 C 2.632812 -1.890625 2.9375 -1.5 3.3125 -1.25 C 3.6875 -1 4.09375 -0.875 4.53125 -0.875 C 5.113281 -0.875 5.601562 -1.035156 6 -1.359375 C 6.394531 -1.691406 6.664062 -2.179688 6.8125 -2.828125 L 8.3125 -2.828125 C 8.101562 -1.796875 7.648438 -1.023438 6.953125 -0.515625 C 6.265625 -0.015625 5.425781 0.234375 4.4375 0.234375 C 3.695312 0.234375 3.023438 0.0703125 2.421875 -0.25 C 1.828125 -0.570312 1.359375 -1.078125 1.015625 -1.765625 C 0.671875 -2.453125 0.5 -3.332031 0.5 -4.40625 C 0.5 -5.40625 0.691406 -6.253906 1.078125 -6.953125 C 1.460938 -7.648438 1.972656 -8.179688 2.609375 -8.546875 C 3.242188 -8.910156 3.925781 -9.09375 4.65625 -9.09375 Z M 4.65625 -9.09375 "/></g></g></g><g fill="#ffffff" fill-opacity="1"><g transform="translate(98.718771, 45.4798)"><g><path d="M 1.953125 -11.765625 C 2.210938 -11.765625 2.429688 -11.671875 2.609375 -11.484375 C 2.785156 -11.304688 2.875 -11.09375 2.875 -10.84375 C 2.875 -10.582031 2.785156 -10.363281 2.609375 -10.1875 C 2.429688 -10.007812 2.210938 -9.921875 1.953125 -9.921875 C 1.691406 -9.921875 1.472656 -10.007812 1.296875 -10.1875 C 1.117188 -10.363281 1.03125 -10.582031 1.03125 -10.84375 C 1.03125 -11.09375 1.117188 -11.304688 1.296875 -11.484375 C 1.472656 -11.671875 1.691406 -11.765625 1.953125 -11.765625 Z M 2.671875 0 L 1.234375 0 L 1.234375 -8.859375 L 2.671875 -8.859375 Z M 2.671875 0 "/></g></g></g><g fill="#ffffff" fill-opacity="1"><g transform="translate(102.693646, 45.4798)"><g><path d="M 8.5 -4.671875 C 8.5 -4.609375 8.5 -4.515625 8.5 -4.390625 C 8.5 -4.273438 8.488281 -4.140625 8.46875 -3.984375 L 2.046875 -3.984375 C 2.097656 -3.210938 2.242188 -2.597656 2.484375 -2.140625 C 2.722656 -1.679688 3.023438 -1.351562 3.390625 -1.15625 C 3.753906 -0.96875 4.15625 -0.875 4.59375 -0.875 C 5.175781 -0.875 5.675781 -1.046875 6.09375 -1.390625 C 6.519531 -1.734375 6.78125 -2.222656 6.875 -2.859375 L 8.390625 -2.859375 C 8.273438 -2.140625 8.023438 -1.550781 7.640625 -1.09375 C 7.253906 -0.644531 6.789062 -0.3125 6.25 -0.09375 C 5.707031 0.125 5.132812 0.234375 4.53125 0.234375 C 3.757812 0.234375 3.066406 0.0664062 2.453125 -0.265625 C 1.847656 -0.609375 1.367188 -1.125 1.015625 -1.8125 C 0.671875 -2.5 0.5 -3.359375 0.5 -4.390625 C 0.5 -5.347656 0.679688 -6.175781 1.046875 -6.875 C 1.421875 -7.582031 1.921875 -8.128906 2.546875 -8.515625 C 3.179688 -8.898438 3.898438 -9.09375 4.703125 -9.09375 C 5.515625 -9.09375 6.203125 -8.90625 6.765625 -8.53125 C 7.328125 -8.15625 7.753906 -7.632812 8.046875 -6.96875 C 8.347656 -6.3125 8.5 -5.546875 8.5 -4.671875 Z M 4.671875 -7.984375 C 3.972656 -7.984375 3.382812 -7.738281 2.90625 -7.25 C 2.4375 -6.757812 2.160156 -6.039062 2.078125 -5.09375 L 7.046875 -5.09375 C 6.984375 -6.019531 6.753906 -6.734375 6.359375 -7.234375 C 5.960938 -7.734375 5.398438 -7.984375 4.671875 -7.984375 Z M 4.671875 -7.984375 "/></g></g></g><g fill="#ffffff" fill-opacity="1"><g transform="translate(111.862573, 45.4798)"><g><path d="M 4.703125 -9.046875 C 4.953125 -9.046875 5.15625 -9.007812 5.3125 -8.9375 L 5.3125 -7.84375 C 4.5625 -7.90625 3.929688 -7.707031 3.421875 -7.25 C 2.921875 -6.789062 2.671875 -6.054688 2.671875 -5.046875 L 2.671875 0 L 1.234375 0 L 1.234375 -8.859375 L 2.671875 -8.859375 L 2.671875 -7.46875 L 3.46875 -8.65625 C 3.863281 -8.914062 4.273438 -9.046875 4.703125 -9.046875 Z M 4.703125 -9.046875 "/></g></g></g><g fill="#ffffff" fill-opacity="1"><g transform="translate(117.373948, 45.4798)"><g><path d="M 6.3125 0 L 6.15625 -1.265625 L 5.671875 -0.3125 C 5.378906 -0.101562 5.039062 0.0351562 4.65625 0.109375 C 4.28125 0.191406 3.878906 0.234375 3.453125 0.234375 C 2.921875 0.234375 2.441406 0.140625 2.015625 -0.046875 C 1.585938 -0.242188 1.242188 -0.53125 0.984375 -0.90625 C 0.722656 -1.28125 0.59375 -1.738281 0.59375 -2.28125 C 0.59375 -3.289062 0.988281 -4.050781 1.78125 -4.5625 C 2.570312 -5.070312 3.835938 -5.328125 5.578125 -5.328125 L 6.140625 -5.328125 L 6.140625 -5.5625 C 6.140625 -5.75 6.140625 -5.929688 6.140625 -6.109375 C 6.140625 -6.285156 6.128906 -6.457031 6.109375 -6.625 C 6.078125 -7.039062 5.929688 -7.367188 5.671875 -7.609375 C 5.410156 -7.859375 4.984375 -7.984375 4.390625 -7.984375 C 3.785156 -7.984375 3.332031 -7.820312 3.03125 -7.5 C 2.726562 -7.1875 2.546875 -6.722656 2.484375 -6.109375 L 0.984375 -6.109375 C 1.046875 -7.054688 1.382812 -7.789062 2 -8.3125 C 2.613281 -8.832031 3.410156 -9.09375 4.390625 -9.09375 C 5.453125 -9.09375 6.222656 -8.878906 6.703125 -8.453125 C 7.179688 -8.035156 7.457031 -7.46875 7.53125 -6.75 C 7.550781 -6.570312 7.5625 -6.378906 7.5625 -6.171875 C 7.570312 -5.960938 7.578125 -5.765625 7.578125 -5.578125 L 7.578125 -2.25 C 7.578125 -1.914062 7.585938 -1.578125 7.609375 -1.234375 C 7.640625 -0.898438 7.6875 -0.488281 7.75 0 Z M 3.9375 -0.875 C 4.601562 -0.875 5.132812 -1.085938 5.53125 -1.515625 C 5.9375 -1.941406 6.140625 -2.554688 6.140625 -3.359375 L 6.140625 -4.265625 C 4.929688 -4.347656 3.96875 -4.25 3.25 -3.96875 C 2.53125 -3.6875 2.171875 -3.164062 2.171875 -2.40625 C 2.171875 -1.875 2.328125 -1.484375 2.640625 -1.234375 C 2.960938 -0.992188 3.394531 -0.875 3.9375 -0.875 Z M 3.9375 -0.875 "/></g></g></g><path fill="#ffffff" d="M 25.214844 28.527344 C 25.214844 28.789062 25.191406 29.050781 25.140625 29.304688 C 25.089844 29.5625 25.011719 29.8125 24.914062 30.050781 C 24.8125 30.292969 24.691406 30.523438 24.546875 30.742188 C 24.398438 30.957031 24.234375 31.160156 24.050781 31.34375 C 23.867188 31.527344 23.664062 31.695312 23.445312 31.839844 C 23.230469 31.984375 23 32.105469 22.757812 32.207031 C 22.515625 32.308594 22.269531 32.382812 22.011719 32.433594 C 21.753906 32.484375 21.496094 32.511719 21.234375 32.511719 C 20.972656 32.511719 20.714844 32.484375 20.457031 32.433594 C 20.203125 32.382812 19.953125 32.308594 19.710938 32.207031 C 19.46875 32.105469 19.238281 31.984375 19.023438 31.839844 C 18.804688 31.695312 18.605469 31.527344 18.417969 31.34375 C 18.234375 31.160156 18.070312 30.957031 17.925781 30.742188 C 17.777344 30.523438 17.65625 30.292969 17.554688 30.050781 C 17.457031 29.8125 17.378906 29.5625 17.328125 29.304688 C 17.277344 29.050781 17.253906 28.789062 17.253906 28.527344 C 17.253906 28.265625 17.277344 28.007812 17.328125 27.753906 C 17.378906 27.496094 17.457031 27.246094 17.554688 27.003906 C 17.65625 26.761719 17.777344 26.535156 17.925781 26.316406 C 18.070312 26.097656 18.234375 25.898438 18.417969 25.714844 C 18.605469 25.527344 18.804688 25.363281 19.023438 25.21875 C 19.238281 25.074219 19.46875 24.949219 19.710938 24.851562 C 19.953125 24.75 20.203125 24.675781 20.457031 24.625 C 20.714844 24.574219 20.972656 24.546875 21.234375 24.546875 C 21.496094 24.546875 21.753906 24.574219 22.011719 24.625 C 22.269531 24.675781 22.515625 24.75 22.757812 24.851562 C 23 24.949219 23.230469 25.074219 23.445312 25.21875 C 23.664062 25.363281 23.867188 25.527344 24.050781 25.714844 C 24.234375 25.898438 24.398438 26.097656 24.546875 26.316406 C 24.691406 26.535156 24.8125 26.761719 24.914062 27.003906 C 25.011719 27.246094 25.089844 27.496094 25.140625 27.753906 C 25.191406 28.007812 25.214844 28.265625 25.214844 28.527344 Z M 25.214844 28.527344 " fill-opacity="1" fill-rule="nonzero"/><path fill="#ffffff" d="M 20.042969 44.667969 C 20.042969 45.050781 19.96875 45.414062 19.824219 45.769531 C 19.679688 46.121094 19.46875 46.429688 19.199219 46.699219 C 18.929688 46.96875 18.621094 47.175781 18.269531 47.324219 C 17.917969 47.46875 17.550781 47.542969 17.167969 47.542969 C 16.789062 47.542969 16.421875 47.46875 16.066406 47.324219 C 15.714844 47.175781 15.40625 46.96875 15.136719 46.699219 C 14.867188 46.429688 14.660156 46.121094 14.511719 45.769531 C 14.367188 45.414062 14.292969 45.050781 14.292969 44.667969 C 14.292969 44.285156 14.367188 43.917969 14.511719 43.566406 C 14.660156 43.214844 14.867188 42.90625 15.136719 42.636719 C 15.40625 42.367188 15.714844 42.15625 16.066406 42.011719 C 16.421875 41.867188 16.789062 41.792969 17.167969 41.792969 C 17.550781 41.792969 17.917969 41.867188 18.269531 42.011719 C 18.621094 42.15625 18.929688 42.367188 19.199219 42.636719 C 19.46875 42.90625 19.679688 43.214844 19.824219 43.566406 C 19.96875 43.917969 20.042969 44.285156 20.042969 44.667969 Z M 20.042969 44.667969 " fill-opacity="1" fill-rule="nonzero"/><path fill="#ffffff" d="M 7.351562 25.433594 C 7.351562 25.8125 7.277344 26.179688 7.132812 26.53125 C 6.988281 26.886719 6.78125 27.195312 6.511719 27.464844 C 6.242188 27.734375 5.929688 27.941406 5.578125 28.089844 C 5.226562 28.234375 4.859375 28.308594 4.476562 28.308594 C 4.097656 28.308594 3.730469 28.234375 3.378906 28.089844 C 3.023438 27.941406 2.714844 27.734375 2.445312 27.464844 C 2.175781 27.195312 1.96875 26.886719 1.820312 26.53125 C 1.675781 26.179688 1.601562 25.8125 1.601562 25.433594 C 1.601562 25.050781 1.675781 24.683594 1.820312 24.332031 C 1.96875 23.980469 2.175781 23.667969 2.445312 23.398438 C 2.714844 23.128906 3.023438 22.921875 3.378906 22.777344 C 3.730469 22.632812 4.097656 22.558594 4.476562 22.558594 C 4.859375 22.558594 5.226562 22.632812 5.578125 22.777344 C 5.929688 22.921875 6.242188 23.128906 6.511719 23.398438 C 6.78125 23.667969 6.988281 23.980469 7.132812 24.332031 C 7.277344 24.683594 7.351562 25.050781 7.351562 25.433594 Z M 7.351562 25.433594 " fill-opacity="1" fill-rule="nonzero"/><path fill="#ffffff" d="M 36.761719 19.359375 C 38.347656 19.359375 39.636719 18.070312 39.636719 16.484375 C 39.636719 14.902344 38.347656 13.609375 36.761719 13.609375 C 35.175781 13.609375 33.886719 14.902344 33.886719 16.484375 C 33.886719 18.070312 35.175781 19.359375 36.761719 19.359375 Z M 36.761719 19.359375 " fill-opacity="1" fill-rule="nonzero"/><g clip-path="url(#12e85005b4)"><path fill="#ffffff" d="M 36.347656 28.527344 C 36.851562 28.035156 37.320312 27.542969 37.757812 27.046875 C 40.796875 23.601562 41.84375 20.503906 40.703125 18.328125 C 40.660156 18.246094 40.613281 18.167969 40.566406 18.089844 C 40.371094 18.550781 40.097656 18.964844 39.757812 19.320312 C 40.289062 20.992188 39.238281 23.46875 36.816406 26.21875 C 36.386719 26.703125 35.925781 27.183594 35.433594 27.667969 C 33.578125 25.976562 31.371094 24.328125 28.917969 22.800781 C 28.710938 21.035156 28.410156 19.355469 28.019531 17.800781 C 29.664062 17.375 31.226562 17.089844 32.660156 16.964844 C 32.640625 16.808594 32.632812 16.648438 32.632812 16.484375 C 32.632812 16.21875 32.65625 15.957031 32.707031 15.703125 C 31.160156 15.832031 29.46875 16.132812 27.691406 16.59375 C 27.492188 15.917969 27.273438 15.269531 27.039062 14.65625 C 25.546875 10.75 23.484375 8.597656 21.234375 8.597656 C 18.984375 8.597656 16.921875 10.75 15.429688 14.65625 C 15.195312 15.265625 14.980469 15.914062 14.78125 16.585938 C 13.332031 16.210938 11.933594 15.941406 10.617188 15.785156 C 6.050781 15.246094 2.910156 16.148438 1.769531 18.328125 C 1.328125 19.167969 1.210938 20.152344 1.417969 21.242188 C 1.5 21.683594 1.632812 22.140625 1.820312 22.613281 C 2.144531 22.339844 2.511719 22.117188 2.910156 21.953125 C 2.71875 21.421875 2.585938 20.871094 2.574219 20.332031 C 2.5625 19.835938 2.648438 19.351562 2.878906 18.910156 C 3.75 17.25 6.515625 16.566406 10.46875 17.03125 C 11.726562 17.179688 13.0625 17.4375 14.453125 17.796875 C 14.058594 19.351562 13.757812 21.035156 13.550781 22.800781 C 12.195312 23.644531 10.914062 24.527344 9.726562 25.433594 L 7.035156 27.664062 L 6.121094 28.527344 C 5.621094 29.019531 5.148438 29.515625 4.714844 30.007812 C 1.671875 33.457031 0.625 36.550781 1.769531 38.730469 C 2.695312 40.496094 4.933594 41.425781 8.183594 41.425781 C 8.941406 41.425781 9.753906 41.375 10.617188 41.273438 C 11.933594 41.117188 13.332031 40.847656 14.78125 40.472656 C 14.847656 40.703125 14.921875 40.933594 14.992188 41.160156 C 15.347656 40.9375 15.738281 40.769531 16.15625 40.664062 C 16.101562 40.488281 16.046875 40.316406 15.996094 40.136719 C 17.695312 39.640625 19.457031 39.003906 21.234375 38.25 C 23.019531 39.007812 24.78125 39.640625 26.488281 40.140625 C 25.167969 44.585938 23.160156 47.203125 21.234375 47.203125 C 20.992188 47.203125 20.753906 47.164062 20.511719 47.085938 C 20.246094 47.457031 19.917969 47.777344 19.546875 48.042969 C 20.09375 48.320312 20.65625 48.460938 21.234375 48.460938 C 23.484375 48.460938 25.546875 46.308594 27.039062 42.402344 C 27.273438 41.789062 27.488281 41.144531 27.6875 40.472656 C 29.136719 40.847656 30.535156 41.117188 31.855469 41.273438 C 32.714844 41.375 33.527344 41.425781 34.285156 41.425781 C 37.535156 41.425781 39.777344 40.496094 40.703125 38.730469 C 41.84375 36.550781 40.796875 33.457031 37.757812 30.007812 C 37.320312 29.515625 36.851562 29.019531 36.347656 28.527344 Z M 13.394531 24.390625 C 13.285156 25.734375 13.226562 27.121094 13.226562 28.527344 C 13.226562 29.9375 13.285156 31.320312 13.394531 32.664062 C 11.371094 31.351562 9.527344 29.949219 7.953125 28.527344 C 9.527344 27.101562 11.367188 25.703125 13.394531 24.390625 Z M 10.46875 40.023438 C 6.515625 40.492188 3.75 39.808594 2.878906 38.148438 C 2.011719 36.488281 3.023438 33.824219 5.65625 30.839844 C 6.082031 30.355469 6.542969 29.871094 7.035156 29.390625 C 8.890625 31.074219 11.109375 32.730469 13.550781 34.25 C 13.757812 36.023438 14.058594 37.707031 14.449219 39.261719 C 13.0625 39.617188 11.726562 39.875 10.46875 40.023438 Z M 29.074219 24.390625 C 31.105469 25.707031 32.945312 27.101562 34.519531 28.527344 C 32.945312 29.953125 31.105469 31.351562 29.074219 32.667969 C 29.183594 31.324219 29.242188 29.9375 29.242188 28.527344 C 29.242188 27.121094 29.183594 25.734375 29.074219 24.390625 Z M 27.554688 21.980469 C 26.824219 21.558594 26.078125 21.144531 25.316406 20.742188 C 24.488281 20.308594 23.65625 19.898438 22.824219 19.515625 C 24.183594 18.976562 25.519531 18.511719 26.820312 18.132812 C 27.113281 19.3125 27.363281 20.597656 27.554688 21.980469 Z M 21.234375 9.855469 C 23.160156 9.855469 25.167969 12.476562 26.488281 16.925781 C 24.789062 17.421875 23.019531 18.054688 21.238281 18.808594 C 19.453125 18.050781 17.6875 17.414062 15.984375 16.917969 C 17.304688 12.472656 19.308594 9.855469 21.234375 9.855469 Z M 15.652344 18.128906 C 16.953125 18.507812 18.292969 18.972656 19.652344 19.511719 C 18.816406 19.898438 17.984375 20.308594 17.15625 20.742188 C 16.390625 21.144531 15.644531 21.558594 14.914062 21.980469 C 15.105469 20.597656 15.355469 19.308594 15.652344 18.128906 Z M 15.664062 38.925781 C 15.367188 37.722656 15.121094 36.429688 14.929688 35.082031 C 15.65625 35.507812 16.398438 35.917969 17.15625 36.3125 C 17.984375 36.75 18.816406 37.160156 19.648438 37.546875 C 18.296875 38.082031 16.964844 38.546875 15.664062 38.925781 Z M 26.816406 38.929688 C 25.515625 38.550781 24.175781 38.085938 22.820312 37.546875 C 23.652344 37.160156 24.484375 36.75 25.316406 36.3125 C 26.078125 35.914062 26.824219 35.5 27.554688 35.074219 C 27.363281 36.460938 27.113281 37.75 26.816406 38.929688 Z M 27.742188 33.503906 C 26.773438 34.089844 25.769531 34.660156 24.730469 35.203125 C 23.566406 35.8125 22.398438 36.375 21.234375 36.882812 C 20.074219 36.375 18.902344 35.8125 17.738281 35.203125 C 16.710938 34.664062 15.707031 34.097656 14.738281 33.507812 C 14.570312 31.898438 14.484375 30.222656 14.484375 28.527344 C 14.484375 26.773438 14.570312 25.113281 14.726562 23.554688 C 15.695312 22.964844 16.703125 22.398438 17.738281 21.855469 C 18.902344 21.246094 20.074219 20.683594 21.238281 20.175781 C 22.398438 20.683594 23.566406 21.246094 24.730469 21.855469 C 25.769531 22.398438 26.773438 22.964844 27.742188 23.554688 C 27.902344 25.113281 27.988281 26.773438 27.988281 28.527344 C 27.988281 30.28125 27.902344 31.945312 27.742188 33.503906 Z M 39.589844 38.148438 C 38.71875 39.808594 35.953125 40.492188 32 40.023438 C 30.742188 39.875 29.40625 39.617188 28.019531 39.261719 C 28.410156 37.707031 28.710938 36.023438 28.917969 34.253906 C 31.371094 32.730469 33.578125 31.078125 35.433594 29.390625 C 35.925781 29.871094 36.386719 30.355469 36.816406 30.839844 C 39.449219 33.824219 40.460938 36.488281 39.589844 38.148438 Z M 39.589844 38.148438 " fill-opacity="1" fill-rule="nonzero"/></g></svg>